<svg width="15" height="15" viewBox="0 0 15 15" fill="none" xmlns="http://www.w3.org/2000/svg">
<path d="M13.502 10.209L11.385 9.967C11.1362 9.9378 10.884 9.9653 10.6474 10.0476C10.4108 10.1299 10.196 10.2647 10.019 10.442L8.48503 11.975C6.1201 10.7717 4.19789 8.84915 2.99503 6.484L4.53503 4.942C4.89503 4.584 5.07003 4.084 5.01103 3.575L4.77003 1.475C4.72265 1.06824 4.52728 0.693124 4.22116 0.421114C3.91503 0.149105 3.51954 -0.000783917 3.11003 3.08346e-06H1.67003C0.728028 3.08346e-06 -0.0549714 0.784004 0.00302857 1.725C0.445029 8.842 6.13603 14.525 13.245 14.967C14.185 15.025 14.969 14.242 14.969 13.3V11.859C14.9711 11.4516 14.8226 11.0578 14.552 10.7532C14.2814 10.4487 13.9068 10.2549 13.502 10.209Z" fill="#18AEFF"/>
</svg>
